<?xml version="1.0" encoding="UTF-8"?>
<svg id="logo" xmlns="http://www.w3.org/2000/svg" viewBox="0 0 500 124">
  <path d="m87.89,18.35c-3.91,4.34-9.94,12.09-18.11,23.26-8.17,11.13-13.91,18.29-17.22,21.48-3.31,3.2-6.04,4.79-8.17,4.79-1.62,0-3.2-1.21-4.73-3.64-1.54-2.43-3.53-7.33-5.98-14.71-5.05-15.03-8.23-23.69-9.53-25.98-.47,1.34-1.01,3.53-1.6,6.57-1.26,6.39-2.94,14.19-5.03,23.38-4.06,17.64-6.37,29.32-6.92,35.04-.08.71-.72,1.48-1.92,2.31-1.2.83-2.18,1.24-2.93,1.24-1.42,0-2.73-.71-3.94-2.13-1.2-1.42-1.81-2.8-1.81-4.14,0-3.47,1.14-9.53,3.43-18.17l5.15-19.41c3.16-12.23,5.11-21.23,5.86-26.99.75-5.76,1.12-10.3,1.12-13.61s2.7-5.15,8.11-5.15c1.14,0,2.35,1,3.61,2.99,1.26,1.99,2.09,3.74,2.49,5.24.51,1.5,1.12,3.18,1.83,5.03l7.93,22.19c3.12,9.08,5.04,14.19,5.77,15.36.73,1.16,1.33,1.75,1.81,1.75,2.01-.43,9.13-9.09,21.37-25.98C82.09,10.32,89.86.95,91.8.95c1.58,0,3.32.62,5.24,1.86,1.91,1.24,2.87,2.32,2.87,3.23,0,.39-1.14,9.06-3.43,25.98-.83,6.27-1.6,13.8-2.31,22.58-.71,8.78-1.07,13.72-1.07,14.83,0,2.01.36,4.26,1.07,6.75.63,2.21.95,3.99.95,5.33,0,1.07-.2,2.61-.59,4.65-.39,2.03-1.25,3.23-2.57,3.58-1.32.35-2.38.53-3.17.53-4.14,0-6.21-3.45-6.21-10.36,0-6.31,1.36-21.76,4.08-46.34.2-1.97.3-3.2.3-3.67,0-.31.24-1.64.71-3.97.35-1.97.53-3.63.53-4.97s-.1-2.17-.3-2.6Z"/>
  <path d="m157.46,67.23c-7.26,6.31-13.64,10.9-19.15,13.76-5.5,2.86-9.72,4.29-12.64,4.29-3.91,0-6.9-1.63-8.97-4.88-2.07-3.25-3.11-7.05-3.11-11.39,0-6.08,1.23-13.58,3.7-22.52,2.47-8.94,4.3-14.24,5.5-15.92,1.2-1.68,3.13-2.52,5.77-2.52,1.1,0,2.01.65,2.72,1.95.71,1.3,1.07,2.78,1.07,4.44,0,.99-.45,2.27-1.36,3.85-2.13,3.71-3.25,5.76-3.34,6.16-.1.4-.86,2.77-2.28,7.13-1.42,4.36-2.13,8.45-2.13,12.28,0,1.34.33,3.43.98,6.27.65,2.84,2,4.26,4.05,4.26,2.17,0,4.84-.66,8.02-1.98,3.18-1.32,6.76-3.48,10.74-6.48,3.98-3,6.67-5.42,8.05-7.28,1.38-1.85,2.36-3.97,2.93-6.33.57-2.37.98-7.5,1.21-15.39.24-7.89,2.15-11.84,5.74-11.84,2.13,0,3.51.56,4.14,1.69.63,1.12.95,3.27.95,6.42,0,2.6-.18,5.86-.53,9.77-.43,4.93-.71,8.44-.83,10.53-.55,10.85-1.96,21.75-4.23,32.7-2.27,10.95-5.57,20.1-9.91,27.46-4.34,7.36-10.32,11.04-17.93,11.04s-14.61-2.02-20.63-6.07c-6.02-4.04-9.03-7.47-9.03-10.27,0-1.3.31-2.58.92-3.85.61-1.26,1.39-1.89,2.34-1.89.47,0,.99.37,1.54,1.12,5.17,7.93,13.3,11.9,24.38,11.9,5.72,0,10.52-5.02,14.41-15.06,3.89-10.04,6.03-19.46,6.42-28.26.08-1.7.24-3.39.47-5.09Z"/>
  <path d="m295.71,73.03c2.41-9.39,4.76-20.94,7.07-34.65,2.31-13.71,3.46-23.29,3.46-28.73,0-2.88.23-4.83.68-5.86.45-1.03,1.4-1.91,2.84-2.66,1.44-.75,3.01-1.12,4.71-1.12,1.1,0,2.05.79,2.84,2.37.79,1.58,1.18,3.45,1.18,5.62,0,1.7-.63,4.7-1.89,9-2.49,9.79-4.93,21.4-7.34,34.83-2.41,13.43-3.61,21.2-3.61,23.29,0,4.22.06,6.89.18,7.99.16,2.05-.5,3.67-1.98,4.85-1.48,1.18-3.42,1.78-5.83,1.78-1.42,0-2.38-.19-2.87-.56-.49-.38-1.52-1.43-3.08-3.17-1.56-1.74-2.54-3.41-2.93-5.03-.32-1.5-1.52-3.47-3.61-5.92-11.36-14.52-21.58-30.38-30.66-47.58-2.57,9.11-4.95,21.76-7.16,37.94l-1.48,9.88c-.16.99-.23,2.97-.21,5.95.02,2.98-.14,4.98-.47,6.01-.34,1.03-1.12,2.2-2.37,3.52-1.24,1.32-2.44,1.98-3.58,1.98-2.64,0-4.2-1.13-4.68-3.4s-.71-4.01-.71-5.24c0-2.88.87-7.58,2.6-14.09,1.74-6.47,3.88-16.43,6.42-29.89,2.54-13.45,3.82-22,3.82-25.63l-.06-3.26c.04-1.14.27-2.16.68-3.05.41-.89,1.2-1.65,2.37-2.28,1.16-.63,2.32-.95,3.46-.95,1.07,0,2.05.23,2.96.68.91.45,1.56,1.15,1.95,2.07.39.93.87,2.65,1.42,5.18,1.58,7.66,6.46,17.88,14.65,30.69,8.19,12.8,15.26,22.62,21.22,29.44Z"/>
  <path d="m345.37,91.08c-5.41,0-9.86-2.05-13.38-6.15-3.51-4.1-5.27-9.17-5.27-15.21,0-10.18,3.42-20.21,10.27-30.1,6.85-9.88,15.04-14.83,24.59-14.83,6.31,0,11.43,2.43,15.36,7.28,3.93,4.85,5.89,10.63,5.89,17.34,0,10.26-4.05,19.77-12.16,28.53-8.11,8.76-16.54,13.14-25.3,13.14Zm-8.23-22.9c0,3.99.84,7.24,2.52,9.77,1.68,2.53,3.9,3.79,6.66,3.79,5.88,0,11.78-3.23,17.7-9.68,5.92-6.45,8.88-13.62,8.88-21.51,0-4.85-1.13-8.79-3.4-11.81-2.27-3.02-5.32-4.53-9.14-4.53-6.35,0-11.81,3.9-16.36,11.69-4.56,7.79-6.84,15.22-6.84,22.28Z"/>
  <path d="m419.17,28.41c4.06-.32,7.89-.69,11.48-1.12,3.55-.39,6.51-.59,8.88-.59,3,0,4.89.28,5.68.83.79.55,1.18,1.52,1.18,2.9,0,3.2-2.23,4.93-6.69,5.21-5.72.35-10.99.85-15.8,1.48-4.81.63-7.41,1.15-7.78,1.57-.38.41-1.57,5.11-3.58,14.09-2.01,8.98-3.02,14.81-3.02,17.49,0,4.34.57,7.23,1.72,8.67,1.14,1.44,2.86,2.16,5.15,2.16,3.39,0,8.11-2.54,14.15-7.63,2.33-2.09,4.12-3.14,5.39-3.14,1.7,0,2.54.91,2.54,2.72,0,2.84-2.73,6.52-8.2,11.04-5.47,4.52-11.06,6.78-16.78,6.78-9.55,0-14.32-5.62-14.32-16.87,0-4.06.99-10.36,2.96-18.88,1.93-8.48,2.9-13.57,2.9-15.27,0-.59-.47-.89-1.42-.89l-6.16.53c-5.05,0-7.58-2.01-7.58-6.04,0-2.29,1.16-3.43,3.49-3.43h12.19c.83,0,1.56-.37,2.19-1.12.63-.75,1.56-3.26,2.78-7.55,1.22-4.28,2.31-8.51,3.25-12.7.95-4.14,2.8-6.21,5.56-6.21,1.7,0,3.02.59,3.97,1.78s1.42,2.29,1.42,3.31c0,.55-.71,3.37-2.13,8.46l-3.43,12.43Z"/>
  <path d="m500.62,68.06c0,4.02-3.56,8.88-10.68,14.56-7.12,5.68-14.47,8.52-22.05,8.52-6.35,0-11.26-1.87-14.71-5.62-3.45-3.75-5.18-8.98-5.18-15.68,0-11.28,3.81-22.02,11.42-32.2,7.61-10.18,15.94-15.27,24.98-15.27,2.96,0,5.38.97,7.25,2.9,1.87,1.93,2.81,4.26,2.81,6.98,0,6.08-2.98,11.9-8.94,17.46-5.96,5.56-13.93,11.03-23.91,16.39-2.05,1.07-3.08,2.45-3.08,4.14,0,3.28.95,5.9,2.84,7.87,1.89,1.97,4.7,2.96,8.4,2.96,8.48,0,17.14-4.69,25.98-14.09,1.3-1.3,2.29-1.95,2.96-1.95,1.26,0,1.89,1.01,1.89,3.02Zm-41.13-9.23c16.73-9.94,25.09-17.93,25.09-23.97,0-2.37-1.07-3.55-3.2-3.55-3.63,0-7.72,2.66-12.28,7.99-4.56,5.33-7.76,11.84-9.62,19.53Z"/>
</svg>